<svg viewBox="-208.5 21 100 100" xmlns="http://www.w3.org/2000/svg" xmlns:xlink="http://www.w3.org/1999/xlink"><circle cx="-158.5" cy="71" fill="#F5EEE5" r="50"/><defs><circle cx="-158.5" cy="71" id="a" r="50"/></defs><clipPath id="b"><use overflow="visible" xlink:href="#a"/></clipPath><path clip-path="url(#b)" d="M-108.5 121v-14s-21.2-4.9-28-6.7c-2.5-.7-7-3.3-7-12V82h-30v6.3c0 8.7-4.5 11.3-7 12-6.8 1.9-28.1 7.3-28.1 6.7v14h100.1z" fill="#E6C19C"/><g clip-path="url(#b)"><defs><path d="M-108.5 121v-14s-21.2-4.9-28-6.7c-2.5-.7-7-3.3-7-12V82h-30v6.3c0 8.7-4.5 11.3-7 12-6.8 1.9-28.1 7.3-28.1 6.7v14h100.1z" id="c"/></defs><clipPath id="d"><use overflow="visible" xlink:href="#c"/></clipPath><path clip-path="url(#d)" d="M-158.5 100.1c12.7 0 23-18.6 23-34.4 0-16.2-10.3-24.7-23-24.7s-23 8.5-23 24.7c0 15.8 10.3 34.4 23 34.4z" fill="#D4B08C"/></g><path d="M-158.5 96c12.7 0 23-16.3 23-31 0-15.1-10.3-23-23-23s-23 7.9-23 23c0 14.7 10.3 31 23 31z" fill="#F2CEA5"/></svg>