<svg id="Layer_1" data-name="Layer 1" xmlns="http://www.w3.org/2000/svg" viewBox="0 0 73.5 84"><title>blog</title><path d="M68.25,0h-63A5.25,5.25,0,0,0,0,5.25v73.5A5.25,5.25,0,0,0,5.25,84H52.5l21-21V5.25A5.25,5.25,0,0,0,68.25,0ZM52.5,76.58V63H66.08ZM68.25,57.75H52.5A5.25,5.25,0,0,0,47.25,63V78.75h-42V5.25h63ZM10.5,18.38a2.62,2.62,0,0,1,2.63-2.62H60.38a2.63,2.63,0,0,1,0,5.25H13.13A2.62,2.62,0,0,1,10.5,18.38Zm0,15.75a2.62,2.62,0,0,1,2.63-2.62H60.38a2.63,2.63,0,0,1,0,5.25H13.13A2.62,2.62,0,0,1,10.5,34.13Zm0,15.75a2.62,2.62,0,0,1,2.63-2.62H60.38a2.63,2.63,0,0,1,0,5.25H13.13A2.62,2.62,0,0,1,10.5,49.88Z"/></svg>