<svg id="Layer_1" data-name="Layer 1" xmlns="http://www.w3.org/2000/svg" viewBox="0 0 86.13 84"><defs><style>.cls-1{fill:#221e1b;fill-rule:evenodd;}</style></defs><title>logo-github</title><path class="cls-1" d="M43.06,0A43.07,43.07,0,0,0,29.45,83.93c2.15.39,2.94-.93,2.94-2.08s0-3.73-.06-7.32c-12,2.6-14.51-5.77-14.51-5.77-2-5-4.78-6.3-4.78-6.3-3.91-2.67.3-2.62.3-2.62,4.32.3,6.6,4.44,6.6,4.44C23.78,70.86,30,69,32.47,67.85A9.2,9.2,0,0,1,35.2,62.1C25.64,61,15.59,57.31,15.59,40.81A16.65,16.65,0,0,1,20,29.26c-.44-1.09-1.92-5.47.42-11.4,0,0,3.62-1.16,11.84,4.41a40.82,40.82,0,0,1,21.56,0c8.22-5.57,11.83-4.41,11.83-4.41,2.35,5.93.87,10.31.43,11.4a16.62,16.62,0,0,1,4.43,11.56c0,16.54-10.07,20.18-19.66,21.25,1.55,1.33,2.92,4,2.92,8,0,5.76-.05,10.4-.05,11.81,0,1.15.78,2.49,3,2.07A43.07,43.07,0,0,0,43.06,0Z"/></svg>